<svg xmlns="http://www.w3.org/2000/svg" viewBox="0 0 110 110"><defs><style>.cls-1{fill:#ffc20f;}.cls-2{fill:#e19113;}.cls-3{fill:#f8f9fa;}.cls-4{fill:none;}</style></defs><title>Asset 28</title><g id="Layer_2" data-name="Layer 2"><g id="Layer_1-2" data-name="Layer 1"><path class="cls-1" d="M91,32.47l-16.63-7.6L69.55,11.05,67.93,9.43H31.22a7,7,0,0,0-7,7v77.3a7,7,0,0,0,7,7H84.28a7,7,0,0,0,7-7V32.81Z"/><path class="cls-2" d="M67.92,9.43V25.79a7,7,0,0,0,7,7H91.31Z"/><path class="cls-3" d="M50.54,60.51,60,51a2.31,2.31,0,0,0,.47-.71.7.7,0,0,0,.06-.17,2.3,2.3,0,0,0,.14-.66v-.1s0-.1,0-.15a2.28,2.28,0,0,0-.15-.76l0-.12a2.3,2.3,0,0,0-.45-.65l-.1-.14-9.42-9.41a2.46,2.46,0,0,0-3.4,0,2.39,2.39,0,0,0,0,3.4l5.36,5.37H38.37a2.41,2.41,0,1,0,0,4.81H52.5L47.14,57.1a2.4,2.4,0,0,0,0,3.41A2.46,2.46,0,0,0,50.54,60.51Z"/><path class="cls-3" d="M79.26,70.28a2.43,2.43,0,0,0,.47-.71l.06-.18a2.63,2.63,0,0,0,.14-.65v-.11a.61.61,0,0,0,0-.14,2.57,2.57,0,0,0-.14-.76l0-.15A2.49,2.49,0,0,0,79.3,67l-.1-.13L69.79,57.4a2.47,2.47,0,0,0-3.41,0,2.41,2.41,0,0,0,0,3.41l5.37,5.36H56.61a2.41,2.41,0,0,0,0,4.82H71.75l-5.37,5.36a2.41,2.41,0,0,0,0,3.4,2.47,2.47,0,0,0,3.41,0Z"/><rect class="cls-4" width="110" height="110"/></g></g></svg>