<?xml version="1.0" encoding="utf-8"?>
<!-- Generator: Adobe Illustrator 23.0.1, SVG Export Plug-In . SVG Version: 6.00 Build 0)  -->
<svg version="1.1" id="Layer_1" xmlns="http://www.w3.org/2000/svg" xmlns:xlink="http://www.w3.org/1999/xlink" x="0px" y="0px"
	 viewBox="0 0 148 125" style="enable-background:new 0 0 148 125;" xml:space="preserve">
<style type="text/css">
	.st0{clip-path:url(#SVGID_2_);}
	.st1{fill:#EEEEEE;}
	.st2{fill:#C4C8CC;}
	.st3{fill:#F8F9FA;}
</style>
<g>
	<g>
		<g>
			<defs>
				<rect id="SVGID_1_" x="0.1" y="0" width="148" height="125"/>
			</defs>
			<clipPath id="SVGID_2_">
				<use xlink:href="#SVGID_1_"  style="overflow:visible;"/>
			</clipPath>
			<g id="Activities" class="st0">
				<g id="Group_42" transform="translate(-268 -1985)">
					<ellipse id="Ellipse_37" class="st1" cx="342.1" cy="2095.2" rx="74" ry="14.8"/>
					<rect id="Rectangle_80" x="295" y="1985" class="st2" width="94.2" height="110.2"/>
				</g>
			</g>
		</g>
	</g>
</g>
<path class="st3" d="M63.7,56l13.1-13.2c0.3-0.3,0.5-0.6,0.7-1c0-0.1,0.1-0.2,0.1-0.2c0.1-0.3,0.2-0.6,0.2-0.9v-0.1c0,0,0-0.1,0-0.2
	c0-0.4-0.1-0.7-0.2-1.1v-0.2c-0.2-0.3-0.4-0.6-0.6-0.9L76.8,38L63.7,24.9c-1.3-1.3-3.4-1.3-4.7,0c-1.3,1.3-1.3,3.4,0,4.7
	c0,0,0,0,0,0l7.4,7.5H46.8c-1.8-0.1-3.4,1.3-3.6,3.1c-0.1,1.8,1.3,3.4,3.1,3.6c0.1,0,0.3,0,0.4,0h19.6L59,51.2
	c-1.3,1.3-1.3,3.4,0,4.7c0,0,0,0,0,0C60.3,57.2,62.4,57.2,63.7,56z"/>
<path class="st3" d="M103.6,69.6c0.3-0.3,0.5-0.6,0.7-1l0.1-0.3c0.1-0.3,0.2-0.6,0.2-0.9v-0.2c0-0.1,0-0.1,0-0.2
	c0-0.4-0.1-0.7-0.2-1.1v-0.2c-0.2-0.3-0.4-0.6-0.7-0.8l-0.1-0.2L90.4,51.7c-1.3-1.3-3.4-1.3-4.7,0c-1.3,1.3-1.3,3.4,0,4.7
	c0,0,0,0,0,0l7.5,7.4h-21c-1.8,0-3.3,1.5-3.3,3.4c0,1.8,1.5,3.3,3.3,3.3h21L85.7,78c-1.3,1.3-1.3,3.4,0,4.7c1.3,1.3,3.4,1.3,4.7,0
	L103.6,69.6z"/>
</svg>
